<?xml version="1.0" encoding="UTF-8" standalone="no"?>
<svg
   version="1.1"
   width="1024"
   height="1024"
   id="svg329"
   sodipodi:docname="logo.svg"
   inkscape:version="1.3.2 (091e20e, 2023-11-25)"
   xmlns:inkscape="http://www.inkscape.org/namespaces/inkscape"
   xmlns:sodipodi="http://sodipodi.sourceforge.net/DTD/sodipodi-0.dtd"
   xmlns="http://www.w3.org/2000/svg"
   xmlns:svg="http://www.w3.org/2000/svg">
  <defs
     id="defs329" />
  <sodipodi:namedview
     id="namedview329"
     pagecolor="#ffffff"
     bordercolor="#000000"
     borderopacity="0.25"
     inkscape:showpageshadow="2"
     inkscape:pageopacity="0.0"
     inkscape:pagecheckerboard="0"
     inkscape:deskcolor="#d1d1d1"
     showgrid="false"
     inkscape:zoom="5.1066513"
     inkscape:cx="694.19269"
     inkscape:cy="654.63644"
     inkscape:window-width="1728"
     inkscape:window-height="1027"
     inkscape:window-x="0"
     inkscape:window-y="133"
     inkscape:window-maximized="0"
     inkscape:current-layer="svg329" />
  <path
     d="M0 0 C0.7515033 -0.00201416 1.50300659 -0.00402832 2.27728271 -0.00610352 C15.1910784 0.0172357 26.66352162 1.50045807 38.6875 6.5 C39.3995459 6.78907227 40.1115918 7.07814453 40.84521484 7.37597656 C66.44504527 18.10544831 86.67909031 38.77680357 98.6875 63.5 C103.26803361 62.97752496 107.69967235 62.30131165 112.21264648 61.34375 C135.82303587 56.63581855 159.4872133 59.1397273 182.6875 64.5 C183.09162109 62.92605469 183.09162109 62.92605469 183.50390625 61.3203125 C190.01165634 40.31509933 213.17703195 21.42148132 231.421875 11.12890625 C237.62201555 8.03625241 244.0724722 5.56114145 250.6875 3.5 C251.54714355 3.22712158 252.40678711 2.95424316 253.29248047 2.6730957 C261.12279473 0.43444421 268.64164328 0.06651085 276.71533203 0.16381836 C278.81711972 0.18755217 280.91764186 0.18433487 283.01953125 0.17773438 C290.46661267 0.19319374 297.45848227 0.66626878 304.6875 2.5 C305.79996094 2.7371875 306.91242188 2.974375 308.05859375 3.21875 C334.21230645 9.88211629 356.87350229 27.98418456 370.71875 50.85546875 C385.16515841 75.3234416 391.40673695 103.62018452 384.8203125 131.8203125 C382.93274008 137.95166844 380.57235155 143.87535471 378.11328125 149.796875 C376.50784556 153.30525579 376.50784556 153.30525579 376.6875 156.5 C377.4403125 156.768125 378.193125 157.03625 378.96875 157.3125 C413.11438435 169.9099185 438.31261485 191.83111939 454.21484375 224.65234375 C460.55277077 239.00418458 464.09285563 254.94854779 464 270.625 C463.99508545 271.62345947 463.9901709 272.62191895 463.98510742 273.65063477 C463.48571851 305.62945176 449.86888427 334.5657084 427.30566406 356.96826172 C422.43713669 361.57676213 417.135242 365.60638694 411.6875 369.5 C411.12836914 369.90202637 410.56923828 370.30405273 409.99316406 370.71826172 C395.91514755 380.68299903 373.21787582 393.5 355.6875 393.5 C355.29304687 394.77810547 355.29304687 394.77810547 354.890625 396.08203125 C351.41066294 405.9682871 345.7956405 415.37168658 340.6875 424.5 C340.20152344 425.4075 339.71554687 426.315 339.21484375 427.25 C331.853527 440.56186518 322.06289524 452.43409211 311.6875 463.5 C310.77676232 464.51002357 309.86802496 465.5218532 308.9609375 466.53515625 C297.93810648 478.78500144 286.0691835 489.85761369 272.6875 499.5 C271.94701416 500.03407471 271.20652832 500.56814941 270.44360352 501.1184082 C264.49773027 505.34677933 258.40917036 509.23290974 252.125 512.9375 C251.17407471 513.49953125 250.22314941 514.0615625 249.2434082 514.640625 C243.4047306 518.04379024 237.51230906 521.17251344 231.375 524 C230.67955078 524.32484375 229.98410156 524.6496875 229.26757812 524.984375 C226.51438327 526.25755974 223.77669479 527.46787476 220.921875 528.49609375 C214.18163315 531.25867587 212.43050173 536.52116207 209.69824219 542.85620117 C206.6416007 549.91282696 202.61303807 555.59094064 197.6875 561.5 C197.01533447 562.32008545 197.01533447 562.32008545 196.32958984 563.15673828 C191.55247654 568.98478346 186.69764503 574.66764244 181.28125 579.91796875 C178.95613101 582.22599128 176.82164096 584.67640586 174.69140625 587.1640625 C173.19793792 588.9049866 171.68104335 590.62586676 170.15234375 592.3359375 C156.508571 607.74451582 148.84390123 624.26285714 141.6875 643.5 C140.6975 643.5 139.7075 643.5 138.6875 643.5 C138.4922876 642.9831665 138.2970752 642.46633301 138.09594727 641.93383789 C132.09639567 626.17914411 125.84894733 610.3716691 114.6875 597.5 C113.83131128 596.4652114 112.97731571 595.42860597 112.125 594.390625 C107.24144549 588.4807167 102.20602234 582.88684726 96.72265625 577.51953125 C93.51311642 574.33463281 90.58976056 570.96453805 87.6875 567.5 C87.26098145 567.00854492 86.83446289 566.51708984 86.39501953 566.01074219 C64.6875 540.92749099 64.6875 540.92749099 64.6875 530.5 C64.01976562 530.40460937 63.35203125 530.30921875 62.6640625 530.2109375 C36.73954919 524.01899338 10.05152409 503.04992694 -9.3125 485.5 C-9.91400879 484.95875488 -10.51551758 484.41750977 -11.13525391 483.85986328 C-37.07927062 460.4156779 -62.25128872 430.28605399 -73.3125 396.5 C-73.3125 395.51 -73.3125 394.52 -73.3125 393.5 C-74.23325317 393.32585571 -74.23325317 393.32585571 -75.17260742 393.14819336 C-112.11673675 385.98645558 -142.9289987 366.55482696 -164.375 335.4375 C-181.47385163 309.78096861 -186.55267878 277.6367109 -181.2355957 247.40356445 C-179.15700873 237.65019481 -175.55338831 228.50042907 -171.3125 219.5 C-170.85101563 218.50613281 -170.38953125 217.51226562 -169.9140625 216.48828125 C-155.79460885 188.53502764 -129.6525428 169.5819754 -101.328125 158.09375 C-99.3125 157.5 -99.3125 157.5 -95.3125 157.5 C-95.78300781 156.35144531 -96.25351562 155.20289063 -96.73828125 154.01953125 C-100.40288554 144.93162667 -103.55657876 136.17107391 -105.3125 126.5 C-105.49425781 125.63246094 -105.67601562 124.76492188 -105.86328125 123.87109375 C-109.86654133 93.82923766 -101.83999792 66.13905019 -84.125 41.9375 C-62.45919701 15.47926133 -34.4249038 0.06417099 0 0 Z "
     fill="#388A43"
     transform="translate(380.3125,205.5)"
     id="path2" />
  <path
     d="M0 0 C0.7515033 -0.00201416 1.50300659 -0.00402832 2.27728271 -0.00610352 C15.1910784 0.0172357 26.66352162 1.50045807 38.6875 6.5 C39.3995459 6.78907227 40.1115918 7.07814453 40.84521484 7.37597656 C66.44504527 18.10544831 86.67909031 38.77680357 98.6875 63.5 C103.26803361 62.97752496 107.69967235 62.30131165 112.21264648 61.34375 C135.82303587 56.63581855 159.4872133 59.1397273 182.6875 64.5 C183.09162109 62.92605469 183.09162109 62.92605469 183.50390625 61.3203125 C190.01165634 40.31509933 213.17703195 21.42148132 231.421875 11.12890625 C237.62201555 8.03625241 244.0724722 5.56114145 250.6875 3.5 C251.54714355 3.22712158 252.40678711 2.95424316 253.29248047 2.6730957 C261.12279473 0.43444421 268.64164328 0.06651085 276.71533203 0.16381836 C278.81711972 0.18755217 280.91764186 0.18433487 283.01953125 0.17773438 C290.46661267 0.19319374 297.45848227 0.66626878 304.6875 2.5 C305.79996094 2.7371875 306.91242188 2.974375 308.05859375 3.21875 C334.21230645 9.88211629 356.87350229 27.98418456 370.71875 50.85546875 C385.16515841 75.3234416 391.40673695 103.62018452 384.8203125 131.8203125 C382.93274008 137.95166844 380.57235155 143.87535471 378.11328125 149.796875 C376.50784556 153.30525579 376.50784556 153.30525579 376.6875 156.5 C377.4403125 156.768125 378.193125 157.03625 378.96875 157.3125 C413.11438435 169.9099185 438.31261485 191.83111939 454.21484375 224.65234375 C460.55277077 239.00418458 464.09285563 254.94854779 464 270.625 C463.99508545 271.62345947 463.9901709 272.62191895 463.98510742 273.65063477 C463.48571851 305.62945176 449.86888427 334.5657084 427.30566406 356.96826172 C422.43713669 361.57676213 417.135242 365.60638694 411.6875 369.5 C411.12836914 369.90202637 410.56923828 370.30405273 409.99316406 370.71826172 C395.91514755 380.68299903 373.21787582 393.5 355.6875 393.5 C355.29304687 394.77810547 355.29304687 394.77810547 354.890625 396.08203125 C351.41066294 405.9682871 345.7956405 415.37168658 340.6875 424.5 C340.20152344 425.4075 339.71554687 426.315 339.21484375 427.25 C331.853527 440.56186518 322.06289524 452.43409211 311.6875 463.5 C310.77676232 464.51002357 309.86802496 465.5218532 308.9609375 466.53515625 C297.93810648 478.78500144 286.0691835 489.85761369 272.6875 499.5 C271.94701416 500.03407471 271.20652832 500.56814941 270.44360352 501.1184082 C264.49773027 505.34677933 258.40917036 509.23290974 252.125 512.9375 C251.17407471 513.49953125 250.22314941 514.0615625 249.2434082 514.640625 C243.4047306 518.04379024 237.51230906 521.17251344 231.375 524 C230.67955078 524.32484375 229.98410156 524.6496875 229.26757812 524.984375 C226.51438327 526.25755974 223.77669479 527.46787476 220.921875 528.49609375 C214.18163315 531.25867587 212.43050173 536.52116207 209.69824219 542.85620117 C206.6416007 549.91282696 202.61303807 555.59094064 197.6875 561.5 C197.01533447 562.32008545 197.01533447 562.32008545 196.32958984 563.15673828 C191.55247654 568.98478346 186.69764503 574.66764244 181.28125 579.91796875 C178.95613101 582.22599128 176.82164096 584.67640586 174.69140625 587.1640625 C173.19793792 588.9049866 171.68104335 590.62586676 170.15234375 592.3359375 C156.508571 607.74451582 148.84390123 624.26285714 141.6875 643.5 C140.6975 643.5 139.7075 643.5 138.6875 643.5 C138.4922876 642.9831665 138.2970752 642.46633301 138.09594727 641.93383789 C132.09639567 626.17914411 125.84894733 610.3716691 114.6875 597.5 C113.83131128 596.4652114 112.97731571 595.42860597 112.125 594.390625 C107.24144549 588.4807167 102.20602234 582.88684726 96.72265625 577.51953125 C93.51311642 574.33463281 90.58976056 570.96453805 87.6875 567.5 C87.26098145 567.00854492 86.83446289 566.51708984 86.39501953 566.01074219 C64.6875 540.92749099 64.6875 540.92749099 64.6875 530.5 C64.01976562 530.40460937 63.35203125 530.30921875 62.6640625 530.2109375 C36.73954919 524.01899338 10.05152409 503.04992694 -9.3125 485.5 C-9.91400879 484.95875488 -10.51551758 484.41750977 -11.13525391 483.85986328 C-37.07927062 460.4156779 -62.25128872 430.28605399 -73.3125 396.5 C-73.3125 395.51 -73.3125 394.52 -73.3125 393.5 C-74.23325317 393.32585571 -74.23325317 393.32585571 -75.17260742 393.14819336 C-112.11673675 385.98645558 -142.9289987 366.55482696 -164.375 335.4375 C-181.47385163 309.78096861 -186.55267878 277.6367109 -181.2355957 247.40356445 C-179.15700873 237.65019481 -175.55338831 228.50042907 -171.3125 219.5 C-170.85101563 218.50613281 -170.38953125 217.51226562 -169.9140625 216.48828125 C-155.79460885 188.53502764 -129.6525428 169.5819754 -101.328125 158.09375 C-99.3125 157.5 -99.3125 157.5 -95.3125 157.5 C-95.78300781 156.35144531 -96.25351562 155.20289063 -96.73828125 154.01953125 C-100.40288554 144.93162667 -103.55657876 136.17107391 -105.3125 126.5 C-105.49425781 125.63246094 -105.67601562 124.76492188 -105.86328125 123.87109375 C-109.86654133 93.82923766 -101.83999792 66.13905019 -84.125 41.9375 C-62.45919701 15.47926133 -34.4249038 0.06417099 0 0 Z M-60.3125 55.5 C-57.34673601 55.83764194 -57.34673601 55.83764194 -55.83203125 54.14453125 C-55.26871094 53.53996094 -54.70539063 52.93539062 -54.125 52.3125 C-48.22307122 46.91332812 -40.86484474 45.48297462 -33.3125 43.5 C-32.51972656 43.2525 -31.72695313 43.005 -30.91015625 42.75 C-18.82880906 39.30502179 -2.68224107 40.20266477 8.44921875 45.91796875 C10.6875 47.5 10.6875 47.5 11.6875 50.5 C10.615 50.45875 9.5425 50.4175 8.4375 50.375 C4.8923537 50.21261244 4.8923537 50.21261244 2.87109375 51.48828125 C-0.125239 52.87656422 -2.70574442 52.74483421 -6 52.8125 C-18.62589002 53.38377183 -31.05502112 56.98374392 -41.3125 64.5 C-42.16328125 65.12003906 -43.0140625 65.74007812 -43.890625 66.37890625 C-57.42347785 76.7311335 -68.16681328 91.47199697 -71.3125 108.5 C-73.12869856 123.47614001 -70.39876603 138.21633969 -61.3125 150.5 C-51.52242838 162.95838289 -37.84903699 172.44959071 -21.953125 175.24609375 C-3.5719015 177.01351909 11.60014493 173.5200777 27.6875 164.5 C19.21533775 176.18574104 6.85726141 180.99596541 -6.3125 185.5 C-7.4778125 185.91378906 -8.643125 186.32757813 -9.84375 186.75390625 C-23.18322281 191.05747426 -37.15583889 191.46213291 -51.06430054 191.69894409 C-68.61861444 192.00212429 -85.1045086 193.63589464 -102.3125 197.5 C-103.50552734 197.76151855 -103.50552734 197.76151855 -104.72265625 198.02832031 C-120.2154889 201.53061351 -131.110806 210.51155641 -139.625 223.875 C-152.44087475 246.07714921 -155.06655478 269.70752919 -149.3125 294.5 C-149.05726563 295.68464844 -148.80203125 296.86929687 -148.5390625 298.08984375 C-143.52441515 318.53948362 -128.77732543 335.43533416 -111.13476562 346.42578125 C-102.05823935 351.77635944 -92.686367 355.47159025 -82.3125 357.5 C-82.89280576 350.30420863 -83.96978911 343.27683611 -85.29614258 336.18603516 C-86.23965466 330.88395182 -86.43528292 325.88643339 -86.3125 320.5 C-83.92903799 322.64511581 -81.54585602 324.79053119 -79.1640625 326.9375 C-77.37242764 328.54751708 -75.57621118 330.15246517 -73.7734375 331.75 C-68.4115321 336.51613813 -63.31794157 341.45795078 -58.34375 346.62890625 C-56.52761344 348.72583868 -56.52761344 348.72583868 -54.3125 348.5 C-54.34601563 349.52222656 -54.37953125 350.54445313 -54.4140625 351.59765625 C-53.78992581 375.57890848 -37.28267202 404.80235997 -23.3125 423.5 C-22.86374512 424.10134766 -22.41499023 424.70269531 -21.95263672 425.32226562 C-16.62529737 432.39055335 -11.02247729 439.12842299 -4.9921875 445.609375 C-3.3125 447.5 -3.3125 447.5 -2.3125 449.5 C-1.6525 449.5 -0.9925 449.5 -0.3125 449.5 C-1.77176143 444.13751083 -3.4630078 439.01611816 -5.703125 433.92578125 C-8.31911021 427.7133539 -10.1844862 421.45481064 -11.875 414.9375 C-12.17164551 413.81794922 -12.46829102 412.69839844 -12.77392578 411.54492188 C-14.98914735 403.06150644 -16.89421537 394.53910028 -18.5859375 385.9375 C-19.12769113 382.65913122 -19.12769113 382.65913122 -20.3125 380.5 C-8.1824623 390.18419904 0.06705191 402.30943228 6.28515625 416.39453125 C18.28140717 442.96004514 33.71349836 468.06379327 54.6875 488.5 C55.19925781 489.08007812 55.71101562 489.66015625 56.23828125 490.2578125 C62.38071003 496.96581823 69.83963294 501.08557478 77.6875 505.5 C78.0175 504.84 78.3475 504.18 78.6875 503.5 C78.02605208 501.54056742 77.27152003 499.61229547 76.4765625 497.703125 C73.8043771 490.984804 71.82582004 484.25506043 70.0625 477.25 C69.76327637 476.0755835 69.46405273 474.90116699 69.15576172 473.69116211 C61.27442959 442.21987453 57.89207785 409.83389739 73.875 380.3125 C84.42277353 363.11012258 101.71680639 353.94345911 120.59375 348.69140625 C142.58049813 344.11083372 166.95076252 347.41052245 185.83251953 359.67578125 C202.33533436 370.92572354 211.76395828 385.08558371 215.6875 404.5 C215.86192627 405.25240967 216.03635254 406.00481934 216.21606445 406.7800293 C217.62882378 413.12960111 218.0366405 419.19189292 218 425.6875 C217.99581055 426.72124756 217.99162109 427.75499512 217.98730469 428.82006836 C217.76667363 444.29358184 215.80549196 459.60662383 211.30273438 474.43017578 C210.56817891 476.90143022 209.8853245 479.3848845 209.203125 481.87109375 C208.67755106 483.7683588 208.15151107 485.6654948 207.625 487.5625 C207.37967529 488.45598145 207.13435059 489.34946289 206.8815918 490.27001953 C205.54867688 494.98140746 203.97630805 499.14651051 201.6875 503.5 C201.6875 504.16 201.6875 504.82 201.6875 505.5 C236.57092841 492.45771639 259.26261604 449.59248858 273.93847656 417.7890625 C274.70037375 416.0848693 275.46194207 414.38052902 276.22314453 412.67602539 C280.25504506 403.69686905 284.56686436 397.40982735 291.6875 390.5 C293.0789748 388.99422548 294.45582384 387.47470162 295.8125 385.9375 C296.37195313 385.31746094 296.93140625 384.69742187 297.5078125 384.05859375 C298.88867045 382.5599996 298.88867045 382.5599996 298.6875 380.5 C299.3475 380.5 300.0075 380.5 300.6875 380.5 C298.25904365 391.97750878 295.4666308 403.27834327 292.23388672 414.55517578 C291.50488678 417.14999861 290.85087118 419.76274176 290.1875 422.375 C288.85966961 427.30155254 286.91804781 431.8740738 284.89453125 436.55078125 C283.16491304 440.77687104 281.8854297 445.09785184 280.6875 449.5 C294.10682818 438.27158254 303.82944383 425.54606689 312.6875 410.5 C313.31011719 409.52804687 313.93273437 408.55609375 314.57421875 407.5546875 C324.06127933 392.19835008 330.92070447 373.94269582 335.00390625 356.3828125 C336.53558246 349.9235151 338.46267166 346.13726122 343.3125 341.5625 C344.12001709 340.77927368 344.12001709 340.77927368 344.94384766 339.98022461 C349.62776467 335.46913811 354.43495051 331.11041526 359.5078125 327.0390625 C360.93011992 325.89460118 362.31360944 324.70215424 363.6875 323.5 C363.6875 322.84 363.6875 322.18 363.6875 321.5 C365.3375 320.84 366.9875 320.18 368.6875 319.5 C368.50050537 320.53930664 368.31351074 321.57861328 368.12084961 322.64941406 C367.42859404 326.50945168 366.74721637 330.37134373 366.0690918 334.23388672 C365.77420185 335.90465955 365.47637295 337.57491644 365.17553711 339.24462891 C364.74337572 341.64616046 364.32185302 344.04935526 363.90234375 346.453125 C363.76593979 347.19806213 363.62953583 347.94299927 363.48899841 348.71051025 C362.63624804 353.66758188 362.63624804 353.66758188 363.6875 358.5 C389.94078238 349.10478981 412.42157727 335.68684097 425.03125 309.734375 C426.02280931 307.34561848 426.88455907 304.95798245 427.6875 302.5 C427.96078125 301.7265625 428.2340625 300.953125 428.515625 300.15625 C435.25245251 279.8136728 435.43429164 253.96377659 425.6875 234.5 C417.32048389 217.94068506 406.81781441 205.71512747 388.828125 199.66015625 C380.62474632 197.23274978 372.12157502 195.86064014 363.6875 194.5 C362.65471924 194.32629883 361.62193848 194.15259766 360.55786133 193.97363281 C351.64134542 192.5704707 342.82049044 192.07446636 333.81817627 191.72451782 C276.64433946 189.39565772 276.64433946 189.39565772 256.39453125 169.21484375 C254.75091419 167.35470229 253.18310578 165.4800978 251.6875 163.5 C252.6053125 163.97050781 253.523125 164.44101562 254.46875 164.92578125 C271.93136279 173.81908732 289.27592949 179.02830586 308.953125 173.40625 C326.44391818 167.6093014 340.34697323 156.21193906 349.078125 139.90234375 C354.45225636 126.75086031 353.35671818 109.84462468 348.22265625 96.81640625 C340.21161134 79.51010313 327.8133824 65.2021316 309.875 57.83984375 C301.53781086 54.79547132 293.07177851 53.74117533 284.24926758 53.13085938 C283.43868896 53.07349609 282.62811035 53.01613281 281.79296875 52.95703125 C281.07262451 52.91553955 280.35228027 52.87404785 279.61010742 52.83129883 C277.6875 52.5 277.6875 52.5 274.6875 50.5 C271.56228167 50.33300768 271.56228167 50.33300768 268.6875 50.5 C273.12955155 45.09228507 279.89253486 42.50847465 286.6875 41.5 C302.48315352 40.63630496 315.60534298 42.68958754 329.41015625 50.66015625 C332.5315817 52.5082683 332.5315817 52.5082683 335.4140625 53.58203125 C338.7944682 54.9469717 340.96795921 57.09668488 343.6875 59.5 C338.59035553 47.69334903 319.15964371 36.4013164 307.6875 31.5 C290.10161535 25.02418517 267.88002953 24.62400807 250.671875 32.234375 C243.00955992 35.79500934 235.95293414 39.77192974 229.6875 45.5 C228.34945312 46.70076172 228.34945312 46.70076172 226.984375 47.92578125 C211.52575152 62.51855286 202.81309777 81.40337152 201.6875 102.5 C201.66593036 105.1450403 201.66334021 107.78164344 201.6953125 110.42578125 C201.70313248 111.10921097 201.71095245 111.79264069 201.7190094 112.4967804 C201.75554839 115.31785831 201.79793752 118.13856361 201.85888672 120.95922852 C201.90146079 123.05229419 201.92469825 125.14489928 201.9453125 127.23828125 C201.9673877 128.46587158 201.98946289 129.69346191 202.01220703 130.95825195 C201.57165963 135.76353103 200.21679742 139.67660692 197.0625 143.4375 C193.30029464 145.12059187 189.7312913 145.1428208 185.6875 144.5 C180.29024556 141.14494994 178.09524954 133.40833161 176.5 127.5 C174.81066613 119.75257504 174.4785509 111.83733413 174.125 103.9375 C174.08181641 103.02419922 174.03863281 102.11089844 173.99414062 101.16992188 C173.88938243 98.94672009 173.78720983 96.72343293 173.6875 94.5 C150.3067758 88.76005134 129.89011043 87.64942182 106.6875 94.5 C106.65011719 95.758125 106.61273438 97.01625 106.57421875 98.3125 C106.02590747 113.61414019 105.34407774 129.74706672 97.0625 143.125 C93.10591454 145.41565474 89.11159771 145.47358784 84.6875 144.5 C81.82585158 142.3764238 80.27578739 139.67657479 78.6875 136.5 C78.61360192 134.42438767 78.60406459 132.34635314 78.625 130.26953125 C78.63805176 128.36288696 78.63805176 128.36288696 78.65136719 126.41772461 C78.65761108 125.74659637 78.66385498 125.07546814 78.67028809 124.38400269 C78.91917053 94.43029508 75.20859776 70.60769051 53.6875 48.5 C43.70330782 38.42553483 31.95832929 32.88161347 18.6875 28.5 C17.50414062 28.09587891 17.50414062 28.09587891 16.296875 27.68359375 C-12.78956062 19.49587664 -40.96881797 35.15864956 -60.3125 55.5 Z "
     fill="#04352B"
     transform="translate(380.3125,205.5)"
     id="path3" />
  <a
     id="a329">
    <path
       d="M0 0 C8.18129761 2.67945845 16.45242214 4.88673196 24.82421875 6.8828125 C25.69159668 7.0900293 26.55897461 7.29724609 27.45263672 7.51074219 C33.22595611 8.86953304 39.01466065 10.12021016 44.83056641 11.28320312 C46.78555439 11.67477469 48.73851024 12.07667284 50.68896484 12.49023438 C84.30028093 19.47708147 118.58459008 17.8019886 151.21362305 7.66699219 C173.95330497 0.63839168 190.18410412 3.14882756 212.20703125 10.71484375 C222.29126206 13.97098307 232.48916231 16.03492056 243.08984375 16.05078125 C243.88211365 16.05410965 244.67438354 16.05743805 245.49066162 16.06086731 C247.16824773 16.06591533 248.84584381 16.06827629 250.5234375 16.06811523 C253.0249212 16.07027003 255.5259398 16.08835932 258.02734375 16.10742188 C273.63542163 16.16367363 288.74704877 14.5215505 304.07421875 11.5703125 C305.21681152 11.35375 306.3594043 11.1371875 307.53662109 10.9140625 C322.91703225 7.95637332 338.0944222 4.57087012 353.078125 0 C356.3347252 -0.97120715 359.58254009 -1.82773273 362.88671875 -2.6171875 C367.60458425 -3.75620578 372.20286961 -5.14523033 376.82421875 -6.6171875 C378.8696103 -7.25786928 380.91574212 -7.89609816 382.96240234 -8.53271484 C384.59340983 -9.04473057 386.21906984 -9.57371703 387.84375 -10.10546875 C405.30569033 -15.25857282 424.67426463 -12.62956496 440.5625 -4.125 C454.14621275 4.23671061 462.39405497 17.18976594 466.07421875 32.5703125 C468.86830535 48.75061397 465.55360577 62.17384443 456.82421875 75.8828125 C442.66992891 95.75268239 423.302573 108.60371776 399.82421875 114.8828125 C401.2694018 101.78108723 403.48223848 88.8506334 405.82421875 75.8828125 C404.17421875 76.5428125 402.52421875 77.2028125 400.82421875 77.8828125 C400.82421875 78.5428125 400.82421875 79.2028125 400.82421875 79.8828125 C399.6015625 81.1171875 399.6015625 81.1171875 397.76171875 82.6328125 C393.41463407 86.32432247 389.23790988 90.17513285 385.07421875 94.0703125 C384.09956665 94.97958496 384.09956665 94.97958496 383.10522461 95.90722656 C381.87343733 97.05963094 380.64652414 98.21727432 379.42529297 99.38085938 C378.14463155 100.58223618 376.81575281 101.73213514 375.47265625 102.86328125 C373.12496392 105.73948251 372.85788928 108.36702923 372.19921875 112.0078125 C368.64603652 129.24775284 361.42900134 146.55376273 352.82421875 161.8828125 C352.48567871 162.48593262 352.14713867 163.08905273 351.79833984 163.71044922 C342.83571001 179.52283028 332.05309047 194.40388378 317.82421875 205.8828125 C319.28016495 200.53250614 320.9649703 195.43173675 323.21484375 190.359375 C325.94581939 183.8788571 327.72269954 177.32854275 329.38671875 170.5078125 C329.98302492 168.13117127 330.58066781 165.754865 331.1796875 163.37890625 C331.60193604 161.69450439 331.60193604 161.69450439 332.03271484 159.97607422 C333.26974247 155.14166952 334.66089005 150.36084058 336.09765625 145.58203125 C336.87366206 142.69912794 337.37965684 139.83348324 337.82421875 136.8828125 C337.16421875 136.8828125 336.50421875 136.8828125 335.82421875 136.8828125 C335.59347656 137.43195313 335.36273437 137.98109375 335.125 138.546875 C333.46016612 141.53657668 331.34671276 143.75828368 329.01171875 146.2578125 C327.27373027 148.12463825 325.5446937 149.99983392 323.82421875 151.8828125 C322.58285156 153.21892578 322.58285156 153.21892578 321.31640625 154.58203125 C317.93829797 158.69152343 315.95354794 163.51164568 313.76171875 168.3203125 C297.23904627 203.61244664 276.52279653 242.62504314 240.82421875 261.8828125 C240.16421875 261.8828125 239.50421875 261.8828125 238.82421875 261.8828125 C239.74716027 258.40403292 240.64105745 255.27295665 242.17578125 252.00390625 C244.67936043 246.2555416 245.9143878 240.08078187 247.38671875 234.0078125 C247.84208008 232.16509766 247.84208008 232.16509766 248.30664062 230.28515625 C255.51173752 200.99384729 261.00054425 167.08239063 245.421875 139.3515625 C242.79618564 135.29426256 240.00428233 131.52221859 236.82421875 127.8828125 C236.32664062 127.29113281 235.8290625 126.69945312 235.31640625 126.08984375 C223.27035293 112.86339827 204.05667408 104.62231216 186.42041016 103.76611328 C162.24680765 102.8776704 141.36212492 106.96739234 122.57421875 123.2578125 C108.5656558 136.42408844 100.73576379 154.68074364 99.71606445 173.92382812 C98.87502941 204.37959508 106.17579572 233.20484801 115.82421875 261.8828125 C109.04708562 258.36966628 102.72095966 254.74379852 96.82421875 249.8828125 C96.10621094 249.29886719 95.38820313 248.71492188 94.6484375 248.11328125 C88.57595673 242.96373366 83.73171084 237.12711247 78.82421875 230.8828125 C78.16679687 230.09132813 77.509375 229.29984375 76.83203125 228.484375 C62.17862542 210.77082016 51.33789895 190.56430805 41.84912109 169.74316406 C37.57133366 160.44732563 33.11583673 153.21363273 25.82421875 145.8828125 C24.50118536 144.37113366 23.18784368 142.85088892 21.88671875 141.3203125 C19.67836874 138.69055016 19.67836874 138.69055016 16.82421875 136.8828125 C21.87356145 159.12641175 27.2745989 181.03960773 36.16015625 202.09765625 C36.82421875 203.8828125 36.82421875 203.8828125 36.82421875 205.8828125 C34.82421875 205.8828125 34.82421875 205.8828125 33.51953125 204.66015625 C31.60321027 202.4149145 29.70434929 200.1585879 27.82421875 197.8828125 C27.38223145 197.35171875 26.94024414 196.820625 26.48486328 196.2734375 C6.68614576 172.39396563 -17.79854399 137.26647495 -17.17578125 104.8828125 C-17.76584961 104.61944092 -18.35591797 104.35606934 -18.96386719 104.0847168 C-21.2715094 102.83079598 -22.74305519 101.53085989 -24.56640625 99.65234375 C-25.1898291 99.01723877 -25.81325195 98.38213379 -26.45556641 97.7277832 C-27.1057373 97.05706787 -27.7559082 96.38635254 -28.42578125 95.6953125 C-35.02877623 88.98504865 -41.75063184 82.68371048 -49.17578125 76.8828125 C-49.40625768 83.89073632 -48.55800039 90.21058308 -47.17578125 97.0703125 C-44.8893313 108.55663371 -44.8893313 108.55663371 -45.17578125 113.8828125 C-68.45540498 109.57675493 -87.22256951 95.82798869 -101.234375 77.13671875 C-109.54947999 64.8160578 -113.48662534 51.69535067 -112.17578125 36.8828125 C-109.52467012 24.06309712 -103.88313803 8.91465694 -93.30078125 0.6328125 C-92.26953125 0.0553125 -91.23828125 -0.5221875 -90.17578125 -1.1171875 C-88.7790953 -2.11599631 -87.38334377 -3.11611244 -85.98828125 -4.1171875 C-60.04482186 -21.4274349 -26.6351831 -8.77788689 0 0 Z "
       fill="#FBFDFC"
       transform="translate(343.17578125,449.1171875)"
       id="path4" />
  </a>
  <path
     d="M 308.15625,452.87109 C 309.8125,454.0625 309.8125,454.0625 312,457 c 0.0846,4.82447 -1.05147,7.3284 -4,11 0.77344,0.18176 1.54687,0.36352 2.34375,0.55078 1.04156,0.25137 2.08312,0.50274 3.15625,0.76172 1.02094,0.24363 2.04187,0.48727 3.09375,0.73828 3.05775,0.8521 5.94353,1.92113 8.90234,3.05933 5.1556,1.8323 10.43618,3.28453 15.69287,4.79663 2.04367,0.58826 4.08564,1.18217 6.12745,1.77685 12.06991,3.50168 23.98902,6.53274 36.43359,8.37891 2.14114,0.32078 4.28178,0.64493 6.42187,0.97266 1.39364,0.20701 1.39364,0.20701 2.81543,0.41821 2.34649,0.42575 4.58682,0.93384 6.8899,1.53296 3.93687,1.00741 7.88984,1.66173 11.91577,2.19726 0.74438,0.10104 1.48876,0.20207 2.25569,0.30617 1.58559,0.21329 3.17151,0.4241 4.75774,0.63255 2.27634,0.30132 4.55028,0.61717 6.82446,0.93433 29.59537,4.00735 59.19913,5.48008 89.03815,5.32968 2.50591,-0.0115 5.01177,-0.0176 7.5177,-0.0224 25.01019,-0.0566 49.88353,-0.64376 74.78454,-3.16147 3.17836,-0.31717 6.35977,-0.60129 9.54047,-0.89386 11.87663,-1.15574 23.6545,-2.8732 35.42578,-4.80859 1.22695,-0.20158 2.45389,-0.40315 3.71802,-0.61084 6.51551,-1.11281 12.90745,-2.44676 19.30469,-4.10791 3.25052,-0.83541 6.5123,-1.60253 9.78198,-2.35938 C 694.28126,479.86076 713.40859,474.61195 732,467 c -0.66,-0.99 -1.32,-1.98 -2,-3 -0.77076,-6.93688 -0.77076,-6.93688 1.8125,-10.5 5.84552,-2.75083 11.29589,-2.31576 17.44141,-0.58203 14.57338,5.31662 27.46094,13.329 34.58984,27.5039 0.57234,1.27618 0.57234,1.27618 1.15625,2.57813 0.37898,0.84434 0.75797,1.68867 1.14844,2.55859 1.25827,3.60744 0.98037,6.64148 0.85156,10.44141 -0.66,0 -1.32,0 -2,0 -0.28875,0.63937 -0.5775,1.27875 -0.875,1.9375 C 783,500 783,500 781,501 c -3.78189,0.44245 -5.46341,0.37259 -8.63281,-1.82813 -0.82242,-0.79921 -1.64485,-1.59843 -2.49219,-2.42187 -0.82758,-0.78891 -1.65516,-1.57781 -2.50781,-2.39063 C 765,492 765,492 763.00781,489.64062 762.34523,489.09922 761.68266,488.55781 761,488 c -3.36591,0.41685 -6.32008,1.41466 -9.44141,2.70703 -0.82524,0.33749 -1.65048,0.67499 -2.50073,1.02271 -0.86472,0.35731 -1.72944,0.71462 -2.62036,1.08276 -7.40347,3.01232 -14.81129,5.78423 -22.4375,8.1875 -1.41748,0.47676 -2.83417,0.95585 -4.25,1.4375 -22.26718,7.38249 -44.74154,12.96763 -67.75,17.5625 -1.08926,0.22188 -2.17852,0.44376 -3.30078,0.67236 -18.17035,3.62254 -36.45145,5.41228 -54.88672,7.07764 -1.18373,0.107 -2.36746,0.214 -3.58707,0.32425 -23.44961,2.09531 -46.67871,3.19085 -70.22543,3.23825 -1.29926,0.003 -2.59853,0.006 -3.93716,0.009 -18.63996,0.01 -37.1651,-0.60298 -55.75034,-2.13394 -1.51267,-0.12416 -1.51267,-0.12416 -3.05591,-0.25082 -19.74176,-1.66145 -39.5836,-3.60549 -59.06909,-7.24918 -1.14614,-0.2102 -2.29228,-0.4204 -3.47314,-0.63696 -46.88152,-8.73083 -46.88152,-8.73083 -64.97999,-15.63257 -3.07825,-1.16883 -6.04931,-2.11211 -9.23437,-2.91797 -9.74059,-2.46449 -19.03987,-6.66276 -28.36328,-10.35938 -0.98871,-0.38929 -1.97742,-0.77859 -2.9961,-1.17968 -0.8917,-0.35272 -1.78341,-0.70544 -2.70214,-1.06885 C 283.2807,488.69556 283.2807,488.69556 280,488 c -2.03886,1.71804 -3.72835,3.35016 -5.5,5.3125 -6.62046,7.17066 -6.62046,7.17066 -11.9375,8.125 -3.9134,-0.66814 -5.25267,-2.26973 -7.5625,-5.4375 -1.2116,-7.8081 1.50001,-15.12868 5.73047,-21.67969 9.41938,-12.37116 30.85098,-28.1452 47.42578,-21.44922 z"
     fill="#05362b"
     id="path5" />
  <path
     d="M0 0 C1.90109782 1.38144726 3.77741469 2.79776105 5.625 4.25 C6.49769531 4.92933594 7.37039063 5.60867188 8.26953125 6.30859375 C18.48129169 14.85760979 25.34024155 25.68825835 29.625 38.25 C29.98980469 39.30058594 30.35460937 40.35117187 30.73046875 41.43359375 C33.45511309 53.05794975 33.53107024 68.67647271 27.625 79.25 C24.63166476 83.87468223 21.2175485 88.0810769 17.625 92.25 C16.72394531 93.30380859 16.72394531 93.30380859 15.8046875 94.37890625 C8.43599985 102.33495306 -1.09741598 107.18367433 -11.375 110.25 C-12.46361328 110.58837891 -12.46361328 110.58837891 -13.57421875 110.93359375 C-29.144328 115.10672839 -47.05457253 111.97514601 -61.05078125 104.39453125 C-75.87515784 94.83097925 -86.83078617 79.9524415 -91.25 62.8125 C-94.70097279 45.41298447 -91.00572267 29.02117169 -81.375 14.25 C-74.85089724 5.29042901 -66.42600536 -0.33051382 -56.375 -4.75 C-55.12203125 -5.34361328 -55.12203125 -5.34361328 -53.84375 -5.94921875 C-36.62595861 -12.99960747 -15.42116971 -9.78500616 0 0 Z "
     fill="#F9FCFA"
     transform="translate(700.375,268.75)"
     id="path6" />
  <path
     d="M0 0 C1.00643555 0.00572021 2.01287109 0.01144043 3.04980469 0.01733398 C20.97764654 0.44167006 35.00227174 7.52469053 47.421875 20.4765625 C59.57156098 35.07882484 61.58270863 52.19010356 59.9375 70.5 C58.24644923 81.35493539 52.63291954 90.05938094 45.9375 98.5 C45.21304688 99.41910156 44.48859375 100.33820313 43.7421875 101.28515625 C34.40664692 112.37738457 21.3531776 119.39771368 6.9375 121.5 C-3.03901581 122.14455739 -12.61807549 122.05960073 -22.0625 118.5 C-23.03445313 118.1596875 -24.00640625 117.819375 -25.0078125 117.46875 C-40.14782158 111.73800487 -52.09425919 101.27310277 -58.84375 86.48046875 C-64.64171508 72.30147082 -65.20328194 57.49139046 -59.73828125 43.09765625 C-50.67314472 23.63613935 -36.16780119 9.45127505 -15.9453125 1.890625 C-10.62952175 0.16717813 -5.55653073 -0.03688789 0 0 Z "
     fill="#F8FBFA"
     transform="translate(372.0625,259.5)"
     id="path7" />
  <path
     d="M0 0 C0.99 0.33 1.98 0.66 3 1 C2.69964844 1.86367188 2.39929688 2.72734375 2.08984375 3.6171875 C1.07276587 6.7741389 0.31325887 9.89634788 -0.4375 13.125 C-8.98810965 46.4533378 -26.79047616 81.06332767 -54 103 C-52.5440538 97.64969364 -50.85924845 92.54892425 -48.609375 87.4765625 C-45.87839936 80.9960446 -44.10151921 74.44573025 -42.4375 67.625 C-41.84119383 65.24835877 -41.24355094 62.8720525 -40.64453125 60.49609375 C-40.36303223 59.37315918 -40.0815332 58.25022461 -39.79150391 57.09326172 C-38.55447628 52.25885702 -37.1633287 47.47802808 -35.7265625 42.69921875 C-34.95055669 39.81631544 -34.44456191 36.95067074 -34 34 C-34.66 34 -35.32 34 -36 34 C-36.23074219 34.54914062 -36.46148438 35.09828125 -36.69921875 35.6640625 C-38.36405263 38.65376418 -40.47750599 40.87547118 -42.8125 43.375 C-44.55048848 45.24182575 -46.27952505 47.11702142 -48 49 C-48.82757812 49.89074219 -49.65515625 50.78148437 -50.5078125 51.69921875 C-53.88592078 55.80871093 -55.87067081 60.62883318 -58.0625 65.4375 C-74.58517248 100.72963414 -95.30142222 139.74223064 -131 159 C-131.66 159 -132.32 159 -133 159 C-132.07705848 155.52122042 -131.1831613 152.39014415 -129.6484375 149.12109375 C-127.14485832 143.3727291 -125.90983095 137.19796937 -124.4375 131.125 C-124.13392578 129.89652344 -123.83035156 128.66804687 -123.51757812 127.40234375 C-116.56029556 99.11848913 -114.44494247 73.48417433 -122 45 C-121.20529297 44.89977539 -120.41058594 44.79955078 -119.59179688 44.69628906 C-96.59040926 41.75951664 -76.33230869 37.38621582 -55 28 C-53.79601562 27.47148438 -52.59203125 26.94296875 -51.3515625 26.3984375 C-40.5813435 21.33841335 -31.65682032 13.88231281 -23.05859375 5.75 C-21 4 -21 4 -18 3 C-18.33 7.62 -18.66 12.24 -19 17 C-17.96359375 16.22914063 -16.9271875 15.45828125 -15.859375 14.6640625 C-14.48970271 13.65088026 -13.11990443 12.63786834 -11.75 11.625 C-11.06808594 11.11710938 -10.38617187 10.60921875 -9.68359375 10.0859375 C-8.68779297 9.35117187 -8.68779297 9.35117187 -7.671875 8.6015625 C-7.0644043 8.15119629 -6.45693359 7.70083008 -5.83105469 7.23681641 C-3.95339275 5.96851836 -2.04636015 4.96787304 0 4 C0 2.68 0 1.36 0 0 Z "
     fill="#C8E2D6"
     transform="translate(715,552)"
     id="path8" />
  <path
     d="M0 0 C6.66666667 5 13.33333333 10 20 15 C19.855625 14.33613281 19.71125 13.67226563 19.5625 12.98828125 C19.376875 12.10527344 19.19125 11.22226562 19 10.3125 C18.814375 9.44238281 18.62875 8.57226562 18.4375 7.67578125 C18.01027953 5.06287036 17.92383799 2.64186962 18 0 C20.72829934 1.28072911 23.03468135 2.68057839 25.3828125 4.56640625 C25.99253906 5.05173828 26.60226562 5.53707031 27.23046875 6.03710938 C27.85566406 6.54048828 28.48085938 7.04386719 29.125 7.5625 C33.34757363 11.10524788 33.34757363 11.10524788 38 14 C38 14.66 38 15.32 38 16 C38.66257812 16.25007812 39.32515625 16.50015625 40.0078125 16.7578125 C43.71967725 18.29876941 47.28566344 20.07026816 50.875 21.875 C51.89787109 22.38353516 51.89787109 22.38353516 52.94140625 22.90234375 C56.24344232 24.55650658 59.46849791 26.26131182 62.63671875 28.16015625 C65.82234872 29.90281794 68.41000998 30.80965314 71.9375 31.5625 C75.35323718 32.30265301 78.54236984 33.17586919 81.78515625 34.4609375 C86.2687619 36.18785742 90.78982225 37.16102175 95.5 38.0625 C96.36206055 38.23168945 97.22412109 38.40087891 98.11230469 38.57519531 C106.03606433 40.08878797 113.97934132 41.14864517 122 42 C121.58427734 43.71896484 121.58427734 43.71896484 121.16015625 45.47265625 C120.79410461 47.0025644 120.42822853 48.53251457 120.0625 50.0625 C119.88009766 50.81466797 119.69769531 51.56683594 119.50976562 52.34179688 C111.29777383 86.8321624 122.01652396 123.35386342 133 156 C126.22286687 152.48685378 119.89674091 148.86098602 114 144 C113.28199219 143.41605469 112.56398438 142.83210937 111.82421875 142.23046875 C105.75173798 137.08092116 100.90749209 131.24429997 96 125 C95.34257812 124.20851563 94.68515625 123.41703125 94.0078125 122.6015625 C79.35440667 104.88800766 68.5136802 84.68149555 59.02490234 63.86035156 C54.74711491 54.56451313 50.29161798 47.33082023 43 40 C41.67696661 38.48832116 40.36362493 36.96807642 39.0625 35.4375 C36.85414999 32.80773766 36.85414999 32.80773766 34 31 C39.0493427 53.24359925 44.45038015 75.15679523 53.3359375 96.21484375 C54 98 54 98 54 100 C52 100 52 100 50.6953125 98.77734375 C48.77899152 96.532102 46.88013054 94.2757754 45 92 C44.5580127 91.46890625 44.11602539 90.9378125 43.66064453 90.390625 C23.55647029 66.1427381 0.86333861 32.64989653 0 0 Z "
     fill="#C8E1D5"
     transform="translate(326,555)"
     id="path9" />
  <path
     d="M0 0 C0.33 0 0.66 0 1 0 C1.06993164 0.76441406 1.13986328 1.52882813 1.21191406 2.31640625 C2.54154363 16.52762385 3.87399606 30.29866619 8 44 C8.91268611 47.11733595 9.82103492 50.23592144 10.72949219 53.35449219 C11.3550069 55.48991396 11.98688933 57.62348367 12.62597656 59.75488281 C14.03611822 64.48593139 15.37124486 69.0873265 16 74 C16.66 74 17.32 74 18 74 C18.08636719 72.77667969 18.17273438 71.55335938 18.26171875 70.29296875 C18.95679222 64.05434961 20.9219556 58.27498619 22.8125 52.3125 C28.08837036 35.06278975 31.48279277 18.0505324 32 0 C39.10686119 6.46827367 41.61893249 17.02680674 44 26 C44.27142822 26.98093628 44.27142822 26.98093628 44.54833984 27.98168945 C46.16444788 34.35633781 46.30857969 40.50908538 46.25 47.0625 C46.23876099 48.72067749 46.23876099 48.72067749 46.22729492 50.41235352 C46.02840923 65.63766466 43.45848273 79.48718377 39 94 C38.7421875 94.86109375 38.484375 95.7221875 38.21875 96.609375 C35.91998765 103.88878911 32.87648716 110.93445387 30 118 C29.34 118 28.68 118 28 118 C27.76539063 119.01191406 27.53078125 120.02382813 27.2890625 121.06640625 C26.08459598 125.28203908 23.94929134 128.43405038 21.375 131.9375 C20.95476563 132.52595703 20.53453125 133.11441406 20.1015625 133.72070312 C19.07649745 135.1534645 18.03948194 136.5776636 17 138 C16.34 136.68 15.68 135.36 15 134 C14.34 134 13.68 134 13 134 C9 127.375 9 127.375 9 124 C7.66998927 122.66335232 6.33622542 121.33043496 5 120 C3.76733398 117.57739258 3.76733398 117.57739258 2.74609375 114.89453125 C2.36646484 113.91033203 1.98683594 112.92613281 1.59570312 111.91210938 C1.02239258 110.37780273 1.02239258 110.37780273 0.4375 108.8125 C0.05142578 107.80896484 -0.33464844 106.80542969 -0.73242188 105.77148438 C-4.7400357 95.2779538 -8.01823412 84.8292266 -10.56103516 73.88818359 C-10.92925041 72.30432553 -11.31246291 70.7239643 -11.69921875 69.14453125 C-16.71452963 45.06392509 -12.54398872 20.90664787 0 0 Z "
     fill="#2E7538"
     transform="translate(504,612)"
     id="path12" />
  <path
     d="M0 0 C9.08345342 4.92285063 14.21931609 13.88266908 18.9375 22.75 C19.31487305 23.45850098 19.69224609 24.16700195 20.08105469 24.89697266 C32.8249411 49.72838305 26.65214086 84.33845223 18.546875 109.67578125 C12.55836465 127.16239662 3.08673674 142.85900185 -8.08203125 157.46875 C-9.4465658 159.26960211 -10.74669387 161.1200408 -12 163 C-15.79549259 162.45418801 -17.30979295 160.94590705 -19.75 158.0625 C-20.67039062 156.99708984 -20.67039062 156.99708984 -21.609375 155.91015625 C-23 154 -23 154 -23 152 C-23.66 152 -24.32 152 -25 152 C-26.47110426 150.09347376 -27.77507193 148.21523357 -29.0625 146.1875 C-29.45735596 145.56657471 -29.85221191 144.94564941 -30.2590332 144.3059082 C-38.39309666 131.15710042 -44.5353639 116.78031106 -49 102 C-49.41258057 100.67548828 -49.41258057 100.67548828 -49.83349609 99.32421875 C-53.72936702 86.47421697 -55.56612692 74.08012017 -55.5625 60.6875 C-55.56491699 59.4072998 -55.56733398 58.12709961 -55.56982422 56.80810547 C-55.32232076 42.7884097 -51.49790988 30.34602877 -45 18 C-44.34 18 -43.68 18 -43 18 C-42.34 16.02 -41.68 14.04 -41 12 C-40.34 12 -39.68 12 -39 12 C-38.7525 11.443125 -38.505 10.88625 -38.25 10.3125 C-36.76129471 7.55839521 -35.11590028 5.30825486 -33 3 C-32.01 3 -31.02 3 -30 3 C-30.34566498 8.41541804 -31.83494914 11.96789184 -34.6484375 16.59375 C-48.27497155 40.85370657 -44.23052881 71.14802172 -37.24389648 96.77319336 C-35.94198536 101.22073386 -34.50572266 105.54498771 -32.6875 109.8125 C-32.05328125 111.30330078 -32.05328125 111.30330078 -31.40625 112.82421875 C-29.38964722 117.37838003 -27.27739169 121.88578169 -25.13671875 126.3828125 C-24 129 -24 129 -24 131 C-22.68 131.33 -21.36 131.66 -20 132 C-20.66 132 -21.32 132 -22 132 C-21.525625 133.093125 -21.05125 134.18625 -20.5625 135.3125 C-19.59812191 137.53476255 -18.76833172 139.69500485 -18 142 C-17.34 142 -16.68 142 -16 142 C-15.01 142.99 -15.01 142.99 -14 144 C-12.53539307 141.94171495 -11.078288 139.87875456 -9.625 137.8125 C-9.2125 137.23435547 -8.8 136.65621094 -8.375 136.06054688 C-6.10283845 132.81721949 -4.28568047 129.75107873 -3 126 C-2.34 126 -1.68 126 -1 126 C-0.88527344 125.13375 -0.77054688 124.2675 -0.65234375 123.375 C0.00751463 119.96112191 1.04317353 117.17757486 2.4375 114 C13.96111699 87.58167806 19.5156786 54.77465929 10 27 C9.40445313 25.24623047 9.40445313 25.24623047 8.796875 23.45703125 C6.67505239 17.62201908 4.24779482 12.24575677 0.91796875 7 C-0.20652209 4.55004549 -0.16193211 2.66493985 0 0 Z "
     fill="#17542B"
     transform="translate(535,604)"
     id="path13" />
  <path
     d="M0 0 C0.33 0 0.66 0 1 0 C0.96519531 1.23363281 0.96519531 1.23363281 0.9296875 2.4921875 C0.61340342 22.05661684 7.85121882 37.24653916 21.3046875 51.4296875 C31.0792115 60.69144959 45.66704489 71.24577453 59 74 C59 72.35 59 70.7 59 69 C60.84494322 72.24027843 61.53659594 75.20447945 62.125 78.875 C62.29257812 79.88304687 62.46015625 80.89109375 62.6328125 81.9296875 C62.99827995 84.98561748 63.06424163 87.92557891 63 91 C39.72037627 86.69394243 20.95321174 72.94517619 6.94140625 54.25390625 C-1.42934663 41.85079069 -5.15639026 28.88289282 -4 14 C-3.05842055 9.2202972 -1.56860825 4.60778673 0 0 Z "
     fill="#C6DED5"
     transform="translate(235,472)"
     id="path17" />
  <path
     d="M0 0 C4.60067193 7.97449802 4.14999014 19.51947556 2.31640625 28.2578125 C-5.02983395 51.60727304 -22.7277462 68.71496159 -44 79.8125 C-50.47212418 82.93948134 -57.06492008 85.14526932 -64 87 C-63.71749338 84.41536498 -63.4243774 81.83268865 -63.125 79.25 C-63.00705078 78.15558594 -63.00705078 78.15558594 -62.88671875 77.0390625 C-62.44863824 73.33222743 -62.0013785 70.19547828 -60 67 C-60 67.99 -60 68.98 -60 70 C-58.84242188 69.44570313 -57.68484375 68.89140625 -56.4921875 68.3203125 C-54.95321122 67.58836036 -53.41414388 66.85659964 -51.875 66.125 C-50.73417969 65.57779297 -50.73417969 65.57779297 -49.5703125 65.01953125 C-45.44138513 63.06185017 -41.38453786 61.33077028 -37 60 C-37 59.34 -37 58.68 -37 58 C-35.34638442 56.97856312 -33.67692457 55.98270125 -32 55 C-29.59809072 52.94402855 -27.30003552 50.80087347 -24.98828125 48.64453125 C-23 47 -23 47 -21 47 C-20.72542969 46.40316406 -20.45085938 45.80632813 -20.16796875 45.19140625 C-19.04990481 43.09363411 -17.92492625 41.66478401 -16.3125 39.9375 C-5.72772053 27.82582081 -1.58615111 15.65280703 0 0 Z "
     fill="#C5DED4"
     transform="translate(807,477)"
     id="path18" />
  <path
     d="M0 0 C3.49350473 2.74287331 6.84455648 5.62499552 10.13476562 8.60986328 C6.60530407 8.60986328 5.70831777 7.84801488 2.82226562 5.92236328 C-16.47156953 -5.95076605 -40.13577827 -8.20103901 -61.93676758 -3.36083984 C-83.42259647 2.04014006 -100.36904778 16.73401629 -111.63378906 35.51660156 C-116.51238671 44.10011145 -120.19706744 53.86625187 -121.86523438 63.60986328 C-122.19523438 63.60986328 -122.52523437 63.60986328 -122.86523438 63.60986328 C-123.58707878 43.7992447 -117.44158041 26.45040348 -103.86523438 11.60986328 C-103.0428125 10.70751953 -102.22039063 9.80517578 -101.37304688 8.87548828 C-74.68621278 -19.09654745 -31.06368256 -23.15138855 0 0 Z "
     fill="#F0F8F4"
     transform="translate(705.865234375,247.39013671875)"
     id="path19" />
  <path
     d="M0 0 C14.46395487 11.49654219 24.51958091 25.72680463 30.3125 43.375 C30.6734375 44.47199219 31.034375 45.56898438 31.40625 46.69921875 C32.4533576 50.9463233 32.75836827 54.95735975 32.9375 59.3125 C32.97617187 60.09173828 33.01484375 60.87097656 33.0546875 61.67382812 C33.14794127 63.57387379 33.23125962 65.47440278 33.3125 67.375 C32.6525 67.375 31.9925 67.375 31.3125 67.375 C31.16554688 66.01568359 31.16554688 66.01568359 31.015625 64.62890625 C30.09361024 57.11766532 28.8490825 51.03521076 25.3125 44.375 C24.77882813 43.24449219 24.24515625 42.11398437 23.6953125 40.94921875 C19.30512554 31.87953703 13.90678466 24.79240753 6.71728516 17.75292969 C5.48981269 16.54892298 4.29467047 15.31213377 3.10546875 14.0703125 C-10.67553533 0.52645763 -31.2323555 -5.03617923 -50 -4.9375 C-51.10432373 -4.93258545 -52.20864746 -4.9276709 -53.34643555 -4.92260742 C-61.20334439 -4.8095959 -68.22414749 -4.24612098 -75.6875 -1.625 C-76.69425781 -1.27308594 -77.70101563 -0.92117187 -78.73828125 -0.55859375 C-88.01158356 3.01168655 -97.06059683 7.83404122 -103.6875 15.375 C-104.3475 15.045 -105.0075 14.715 -105.6875 14.375 C-99.16914512 7.52205276 -92.75841632 1.4193227 -84.6875 -3.625 C-84.006875 -4.07359375 -83.32625 -4.5221875 -82.625 -4.984375 C-57.537731 -20.37883552 -23.17597883 -17.55839418 0 0 Z "
     fill="#EFF7F2"
     transform="translate(425.6875,246.625)"
     id="path20" />
  <path
     d="M0 0 C3.4375 1.6875 3.4375 1.6875 6 4 C6.78375 4.680625 7.5675 5.36125 8.375 6.0625 C10.91003842 10.64506945 10.81483735 14.88939732 10 20 C8.22196594 24.80698588 6.03264832 27.38806026 1.625 30 C-3.50889807 31.41624774 -7.15848161 31.68605587 -12.1875 29.8125 C-16.23356543 27.20503561 -18.36317045 23.95524432 -21 20 C-21.72380724 15.11009292 -21.52637966 11.09325007 -19.375 6.625 C-13.55666757 0.19421152 -8.48334729 -1.2516414 0 0 Z "
     fill="#F7FAFA"
     transform="translate(390,288)"
     id="path25" />
  <path
     d="M0 0 C3.63 0 7.26 0 11 0 C11 0.33 11 0.66 11 1 C8.36 1.33 5.72 1.66 3 2 C4.32 2.99 5.64 3.98 7 5 C5.68 5.99 4.36 6.98 3 8 C0 3.375 0 3.375 0 0 Z "
     fill="#398947"
     transform="translate(329,398)"
     id="path168" />
  <path
     d="M0 0 C0.33 0.66 0.66 1.32 1 2 C-0.98 4.64 -2.96 7.28 -5 10 C-5.66 9.34 -6.32 8.68 -7 8 C-6.01 7.67 -5.02 7.34 -4 7 C-3.896875 6.21625 -3.79375 5.4325 -3.6875 4.625 C-3 2 -3 2 0 0 Z "
     fill="#1D5534"
     transform="translate(535,747)"
     id="path251" />
  <path
     d="M0 0 C0.66 0 1.32 0 2 0 C5 5.75 5 5.75 5 8 C4.01 7.67 3.02 7.34 2 7 C2 6.34 2 5.68 2 5 C1.34 4.67 0.68 4.34 0 4 C0 2.68 0 1.36 0 0 Z "
     fill="#133D32"
     transform="translate(828,421)"
     id="path271" />
  <path
     d="M0 0 C0.66 0 1.32 0 2 0 C0.87548273 2.9719385 -0.22293791 5.33440687 -2 8 C-2.66 8 -3.32 8 -4 8 C-2.25 2.25 -2.25 2.25 0 0 Z "
     fill="#1A3E39"
     transform="translate(288,261)"
     id="path297" />
  <path
     style="fill:#c8e2d6;fill-opacity:1;stroke-width:0.628993"
     d="m 359.56977,380.19609 c -15.55038,-2.61 -31.40513,-12.34202 -40.42735,-24.81525 -3.23511,-4.47256 -6.92241,-12.3723 -8.51409,-18.24079 -1.95087,-7.19282 -1.95497,-21.11133 -0.008,-28.24053 4.74815,-17.38897 21.19846,-35.94291 39.45167,-44.49665 7.77475,-3.64337 11.16879,-4.31442 21.82162,-4.31442 17.62524,0 28.99758,4.04364 41.5524,14.77471 8.47782,7.24631 13.87053,16.09836 16.86416,27.68229 1.27535,4.935 1.46257,7.15315 1.45993,17.2973 -0.003,10.97523 -0.0997,11.92463 -1.70525,16.7099 -4.17736,12.45072 -16.25381,27.94404 -27.40315,35.15651 -10.14546,6.56306 -19.32955,9.18362 -31.79365,9.07189 -4.53942,-0.0407 -9.62352,-0.30392 -11.29798,-0.58496 z"
     id="path329" />
  <path
     style="fill:#c8e2d6;fill-opacity:1;stroke-width:0.628993"
     d="m 665.02482,380.79253 c -6.25333,-0.728 -13.60245,-2.68417 -19.62217,-5.22296 -17.113,-7.21735 -32.82503,-27.27152 -36.26877,-46.29193 -4.08207,-22.54599 5.73219,-46.74667 23.9056,-58.9481 5.11475,-3.43399 14.68885,-7.84311 20.48386,-9.43335 6.12724,-1.68142 21.81773,-1.51408 28.41501,0.30304 10.98338,3.02519 20.21481,8.30576 29.28917,16.75399 14.77327,13.75392 23.19039,35.44512 20.99096,54.09442 -1.10209,9.34471 -3.05051,14.0953 -8.97722,21.88803 -7.95579,10.46066 -13.86569,15.67446 -22.85797,20.16563 -6.25911,3.12611 -15.70954,6.0014 -22.1509,6.73941 -6.1495,0.70458 -6.76084,0.70234 -13.20757,-0.0482 z"
     id="path330" />
  <path
     style="fill:#c8e2d6;fill-opacity:1;stroke-width:0.314496"
     d="m 452.3654,285.33162 c -1.01955,-0.24613 -1.4037,-0.53957 -1.80327,-1.37747 -0.43179,-0.90547 -0.66967,-1.06471 -1.59049,-1.06471 -0.74815,0 -1.11419,0.15795 -1.18445,0.51111 -0.066,0.33151 -0.36928,0.0276 -0.86319,-0.86487 -1.38083,-2.49505 -4.46524,-6.98902 -6.88034,-10.02462 -3.55646,-4.47022 -12.93448,-13.84219 -16.66514,-16.65439 -9.13438,-6.88557 -20.25523,-11.23822 -34.34658,-13.4431 -5.25193,-0.82177 -24.00208,-0.82434 -29.17417,-0.004 -6.45455,1.02376 -13.35542,3.3425 -20.75096,6.9725 -5.87059,2.88149 -10.65052,6.08135 -14.33348,9.59536 -2.57721,2.45898 -2.96214,2.71976 -3.59397,2.43479 -0.38919,-0.17553 -0.70762,-0.42231 -0.70762,-0.54839 0,-0.44343 9.33978,-9.29588 12.43138,-11.78275 14.71107,-11.83348 29.39488,-17.21281 47.00843,-17.22126 9.01958,-0.004 16.25002,1.16831 24.82536,4.02621 5.15103,1.71669 12.50888,5.28143 17.00265,8.23748 8.95856,5.89305 18.92055,16.37401 24.99756,26.29983 3.53047,5.76646 8.05829,15.3877 7.18088,15.25879 -0.14139,-0.0208 -0.84006,-0.1785 -1.5526,-0.35051 z"
     id="path331" />
  <path
     style="fill:#c8e2d6;fill-opacity:1;stroke-width:0.314496"
     d="m 583.17818,305.61179 c 0.42449,-11.17024 2.53536,-19.82423 7.115,-29.16953 3.58542,-7.31648 7.85315,-13.21748 14.62847,-20.22682 14.32272,-14.81745 32.80986,-22.98332 53.31914,-23.55137 18.82493,-0.5214 36.32949,5.52713 50.81535,17.55874 5.18693,4.30813 6.56632,5.62017 5.90662,5.61819 -1.36106,-0.004 -3.14835,-0.78549 -6.63218,-2.89962 -17.67154,-10.72379 -40.39438,-14.07308 -63.14139,-9.30688 -7.29463,1.52844 -16.64908,5.50379 -23.58722,10.02382 -12.40632,8.08242 -23.38122,20.54721 -30.0292,34.10581 -3.54847,7.23712 -6.20012,14.85483 -7.25259,20.83538 -0.28782,1.63551 -0.53426,2.2801 -0.87172,2.2801 -0.40687,0 -0.44341,-0.71213 -0.27028,-5.26782 z"
     id="path332" />
  <path
     style="fill:#c8e2d6;fill-opacity:1;stroke-width:0.314496"
     d="m 456.70806,310.01474 c -0.90449,-8.02226 -2.37586,-12.90737 -6.34772,-21.07513 l -2.80226,-5.76259 0.7686,-0.29222 c 1.01687,-0.38661 1.64167,-0.11086 2.20143,0.97159 0.43743,0.84589 1.93789,1.5425 3.33272,1.54726 0.77608,0.003 3.25766,7.7696 3.86915,12.10986 0.37632,2.67105 1.11878,12.93921 1.11996,15.48894 10e-5,0.22093 -0.38547,0.39312 -0.88026,0.39312 h -0.88044 z"
     id="path333" />
  <path
     style="fill:#04352b;fill-opacity:1"
     d="m 411.94103,422.68305 c 0,0 32.70762,-18.86978 40.25553,-41.51352 7.54791,-22.64373 8.8059,7.54791 8.8059,7.54791 0,0 2.51597,27.67568 -5.03194,33.96561 -7.54792,6.28992 -49.06143,2.51597 -44.02949,0 z"
     id="path341" />
  <path
     style="fill:#04352b;fill-opacity:1"
     d="m 627.48856,421.83892 c 0,0 -32.70762,-18.86978 -40.25553,-41.51352 -7.54791,-22.64373 -8.8059,7.54791 -8.8059,7.54791 0,0 -2.51597,27.67568 5.03194,33.96561 7.54792,6.28992 49.06143,2.51597 44.02949,0 z"
     id="path341-2" />
  <path
     style="fill:#04352b;fill-opacity:1"
     d="m 335.35278,334.01848 c 0,0 -11.11913,-5.78195 -4.44765,-20.90396 6.67147,-15.12201 74.27574,-10.67436 72.49668,-4.44765 -1.77906,6.22671 4.44765,4.00289 -0.44476,24.46208 -4.89242,20.45918 -67.60427,0.88953 -67.60427,0.88953 z"
     id="path342" />
  <path
     style="fill:#04352b;fill-opacity:1"
     d="m 704.84316,334.90973 c 0,0 11.11913,-5.78195 4.44765,-20.90396 -6.67147,-15.12201 -74.27574,-10.67436 -72.49668,-4.44765 1.77906,6.22671 -4.44765,4.00289 0.44476,24.46208 4.89242,20.45918 67.60427,0.88953 67.60427,0.88953 z"
     id="path342-6" />
</svg>
